<?xml version="1.0" standalone="no"?>
<!DOCTYPE svg PUBLIC "-//W3C//DTD SVG 20010904//EN"
 "http://www.w3.org/TR/2001/REC-SVG-20010904/DTD/svg10.dtd">
<svg version="1.0" xmlns="http://www.w3.org/2000/svg"
 width="95.000000pt" height="95.000000pt" viewBox="0 0 95.000000 95.000000"
 preserveAspectRatio="xMidYMid meet">
<metadata>
Created by potrace 1.14, written by Peter Selinger 2001-2017
</metadata>
<g transform="translate(0.000000,95.000000) scale(0.100000,-0.100000)"
fill="#000000" stroke="none">
<path d="M510 769 c0 -5 7 -9 15 -9 8 0 15 -6 15 -14 0 -12 -26 -15 -129 -18
-113 -3 -133 -6 -158 -24 -37 -28 -35 -43 7 -72 29 -19 44 -23 90 -19 30 2 65
8 77 12 21 7 22 6 11 -26 -17 -49 -21 -200 -8 -262 6 -29 30 -87 53 -127 34
-61 49 -77 80 -89 48 -18 57 -8 24 27 -15 16 -27 36 -27 45 0 10 -6 28 -14 40
-8 12 -17 60 -21 107 -5 73 -3 96 16 155 12 39 28 77 36 86 16 20 17 56 1 62
-10 3 -10 8 -2 16 7 8 57 13 148 13 139 2 158 8 119 39 -11 10 -55 15 -149 17
-116 3 -133 6 -137 21 -4 19 -47 36 -47 20z m234 -59 c24 -5 12 -8 -48 -13
-43 -4 -95 -7 -115 -7 -34 1 -35 1 -16 16 21 15 116 18 179 4z m-214 -10 c0
-5 -13 -10 -29 -10 -17 0 -33 -5 -36 -10 -13 -21 -86 -50 -127 -50 -46 0 -88
22 -88 45 0 7 17 17 38 23 50 13 242 15 242 2z"/>
</g>
</svg>
